<?xml version="1.0" encoding="utf-8"?>
<!-- Generator: Adobe Illustrator 24.3.0, SVG Export Plug-In . SVG Version: 6.00 Build 0)  -->
<svg version="1.1" id="Layer_1" xmlns="http://www.w3.org/2000/svg" xmlns:xlink="http://www.w3.org/1999/xlink" x="0px" y="0px"
	 viewBox="0 0 878 660" style="enable-background:new 0 0 878 660;" xml:space="preserve">
<style type="text/css">
	.st0{opacity:0.5;fill-rule:evenodd;clip-rule:evenodd;fill:#C1C1C1;enable-background:new    ;}
	.st1{opacity:0.5;fill-rule:evenodd;clip-rule:evenodd;fill:url(#SVGID_1_);enable-background:new    ;}
</style>
<path class="st0" d="M867,660H2.9c-12-161.5,147.2-263.2,233.7-318.5c11.2-7.2,21.2-13.6,29.5-19.2c36.2-24.7,63-78.7,91.5-136.2
	c52.5-105.8,126.8-203.3,260-170.8C724,50.2,859.2,227,877.8,292.1v338.8C874.5,640.5,870.9,650.2,867,660z"/>
<linearGradient id="SVGID_1_" gradientUnits="userSpaceOnUse" x1="481.5448" y1="636" x2="481.5448" y2="83.8">
	<stop  offset="0" style="stop-color:#FF9C55"/>
	<stop  offset="8.598012e-02" style="stop-color:#FE9E4E;stop-opacity:0.957"/>
	<stop  offset="0.3474" style="stop-color:#FBA23D;stop-opacity:0.8263"/>
	<stop  offset="0.6357" style="stop-color:#FAA533;stop-opacity:0.6821"/>
	<stop  offset="1" style="stop-color:#F9A630;stop-opacity:0.5"/>
</linearGradient>
<path class="st1" d="M867.5,660H87.2c-9.9-133,121.3-216.9,192.6-262.4c9.3-5.9,17.5-11.2,24.3-15.8c29.8-20.4,51.9-64.9,75.4-112.2
	c43.3-87.2,91.3-184,201-157.2c96.5,23.6,241.4,124,295.9,274.2V636C873.7,643.9,870.7,651.9,867.5,660z"/>
</svg>
